<svg width="140" height="137" viewBox="0 0 140 137" fill="none" xmlns="http://www.w3.org/2000/svg">
<path d="M31.1126 114.194C31.1165 114.896 30.8598 115.574 30.3922 116.097C29.9245 116.62 29.2793 116.951 28.5817 117.025C27.8562 117.07 27.1423 116.827 26.5937 116.351C26.0451 115.874 25.7058 115.201 25.649 114.476C25.6453 113.771 25.9113 113.091 26.3926 112.575C26.8506 112.045 27.4949 111.712 28.1919 111.645C28.5472 111.604 28.9072 111.642 29.2462 111.756C29.5852 111.87 29.8949 112.057 30.153 112.305C30.4403 112.532 30.6749 112.818 30.8406 113.144C31.0062 113.47 31.0991 113.829 31.1126 114.194Z" fill="#5AADF1"/>
<path d="M22.4703 95.7582C22.3651 96.7449 21.9848 97.6821 21.3728 98.4631C20.6866 99.336 19.8109 100.042 18.8119 100.526C17.8211 101.054 16.7196 101.339 15.5973 101.36C14.5924 101.38 13.6032 101.109 12.7485 100.58C11.8724 100.027 11.1683 99.2393 10.7154 98.3071C10.3592 97.6403 10.1544 96.9031 10.1157 96.1481C10.0965 95.4366 10.2358 94.7299 10.5235 94.079L4.64606 97.0777L3.38062 94.5887L18.494 86.9121L19.4956 88.8852C19.048 89.3207 18.5531 89.7049 18.0202 90.0307C18.826 90.164 19.5886 90.4867 20.2453 90.9723C20.9141 91.4689 21.4566 92.1161 21.8286 92.8615C22.318 93.7448 22.5409 94.7509 22.4703 95.7582ZM17.5165 91.644C17.0668 91.4983 16.5916 91.4487 16.1215 91.4983C15.6514 91.5478 15.197 91.6956 14.7877 91.9319L14.3139 92.1718C13.8701 92.359 13.4696 92.6356 13.1373 92.9844C12.8051 93.3331 12.5482 93.7466 12.3827 94.1989C12.2586 94.6369 12.2229 95.0953 12.2774 95.5472C12.332 95.9992 12.4758 96.4358 12.7006 96.8318C12.8835 97.2252 13.1449 97.5771 13.4687 97.8659C13.7926 98.1546 14.172 98.3742 14.5837 98.511C15.0754 98.6331 15.5866 98.6556 16.0871 98.5773C16.5877 98.4991 17.0675 98.3216 17.4985 98.0552C18.4542 97.6493 19.2255 96.9036 19.6635 95.9621C19.8231 95.5636 19.8919 95.1345 19.8649 94.7061C19.8379 94.2777 19.7159 93.8606 19.5076 93.4852C19.1094 92.6353 18.3949 91.9746 17.5165 91.644Z" fill="#5AADF1"/>
<path d="M16.3287 80.7648C16.0101 81.7477 15.4069 82.614 14.5954 83.2537C13.7199 83.9397 12.6908 84.4028 11.5967 84.6031C10.5299 84.8318 9.42295 84.7905 8.37613 84.4832C7.36241 84.1859 6.45235 83.6103 5.74927 82.8219C4.99711 81.976 4.49465 80.9379 4.2979 79.8232C3.98226 78.6028 4.08792 77.3116 4.59777 76.1588C4.82822 75.6915 5.1655 75.2852 5.58229 74.9726C5.99908 74.66 6.48365 74.45 6.99673 74.3596C7.46628 74.2461 7.95669 74.2514 8.42368 74.375C8.89067 74.4986 9.31954 74.7365 9.67156 75.0673C10.4946 75.9 11.0303 76.9736 11.2009 78.1319L11.9326 81.7843C12.7231 81.5003 13.3893 80.9486 13.8158 80.225C14.2313 79.4674 14.349 78.5819 14.1456 77.7421C14.0299 77.0459 13.7526 76.3866 13.336 75.8169C12.946 75.3225 12.458 74.9141 11.9026 74.6175L12.8742 72.8182C14.7773 73.5299 15.9768 75.0613 16.4726 77.4122C16.7144 78.5235 16.6648 79.6784 16.3287 80.7648ZM7.57248 76.9205C7.34743 76.9595 7.13613 77.0555 6.9587 77.1993C6.78128 77.3431 6.64364 77.53 6.55892 77.7421C6.34567 78.319 6.31841 78.9481 6.48095 79.5413C6.61025 80.3205 7.02768 81.0226 7.65044 81.5085C8.33585 81.9854 9.16186 82.2178 9.99542 82.1682L9.29373 78.6897C9.01785 77.3343 8.4441 76.7445 7.57248 76.9205Z" fill="#5AADF1"/>
<path d="M14.9013 67.4025C14.5317 68.2324 13.9876 68.9729 13.306 69.5736L11.7527 68.2182C12.2278 67.7649 12.5929 67.2089 12.8202 66.5929C13.0573 65.9132 13.1888 65.2013 13.21 64.4818C13.2627 63.9316 13.1846 63.3768 12.9821 62.8625C12.8904 62.6756 12.7464 62.5194 12.5675 62.4129C12.3886 62.3064 12.1826 62.2543 11.9746 62.2627C11.7674 62.2446 11.5593 62.2857 11.3745 62.3812C11.1897 62.4768 11.0359 62.6229 10.931 62.8025C10.6185 63.3865 10.4152 64.0227 10.3313 64.6797C10.1887 65.798 9.75438 66.8591 9.07184 67.7564C8.74314 68.108 8.3361 68.377 7.88382 68.5417C7.43154 68.7063 6.94678 68.7619 6.46897 68.7039C5.81233 68.6807 5.18096 68.445 4.66975 68.0322C4.11693 67.5794 3.70151 66.9812 3.47027 66.305C3.19111 65.5086 3.07486 64.6643 3.12842 63.8221C3.13096 62.9588 3.31981 62.1063 3.68209 61.3228C4.04436 60.5392 4.5715 59.8431 5.22751 59.282L6.72086 60.7094C6.28103 61.1005 5.9329 61.5838 5.7013 62.1248C5.50322 62.6916 5.40185 63.2876 5.40143 63.888C5.33546 65.2734 5.73729 65.9931 6.60091 66.0291C6.78866 66.0537 6.97942 66.0203 7.14769 65.9335C7.31596 65.8467 7.45371 65.7106 7.5425 65.5433C7.82461 64.9176 8.02614 64.2586 8.14224 63.5822C8.3418 62.4668 8.79079 61.411 9.45567 60.4935C9.77716 60.1304 10.1819 59.8506 10.6353 59.6783C11.0886 59.5059 11.577 59.4461 12.0585 59.5039C12.7257 59.5327 13.369 59.7603 13.9057 60.1577C14.4708 60.5908 14.9047 61.1721 15.1592 61.8369C15.4661 62.6372 15.5951 63.4947 15.537 64.3498C15.5149 65.3979 15.2994 66.4328 14.9013 67.4025Z" fill="#5AADF1"/>
<path d="M2.51086 52.3552C2.32634 52.469 2.12063 52.5442 1.9062 52.5761C1.69177 52.6081 1.47309 52.5962 1.2634 52.5411C1.05104 52.4969 0.849963 52.4098 0.672558 52.285C0.495152 52.1601 0.345171 52.0004 0.231849 51.8154C0.116786 51.6224 0.0425185 51.4079 0.0136352 51.1851C-0.015248 50.9623 0.00186681 50.7359 0.0639221 50.52C0.106756 50.3 0.19366 50.0909 0.319404 49.9054C0.445148 49.7199 0.607131 49.5617 0.795604 49.4404C0.980415 49.3273 1.18634 49.253 1.40081 49.2221C1.61528 49.1911 1.83381 49.2042 2.04306 49.2605C2.25422 49.3037 2.45424 49.3899 2.63067 49.5137C2.8071 49.6375 2.95617 49.7963 3.06862 49.9802C3.18603 50.1722 3.26214 50.3865 3.29209 50.6096C3.32204 50.8326 3.30516 51.0595 3.24254 51.2756C3.20037 51.4959 3.11374 51.7052 2.98793 51.8908C2.86213 52.0764 2.6998 52.2344 2.51086 52.3552ZM4.80186 53.0689L5.44958 50.382L16.9766 53.0988L16.3408 55.7797L4.80186 53.0689Z" fill="#5AADF1"/>
<path d="M22.1164 50.082C21.6747 50.3948 21.1566 50.5823 20.6171 50.6245C20.0775 50.6668 19.5366 50.5622 19.0517 50.3219C18.3165 49.9494 17.7566 49.3034 17.4924 48.5227C17.0878 47.429 16.8023 46.295 16.6407 45.1402L16.4428 43.8867C15.8575 44.809 14.9974 45.5243 13.9839 45.9318C13.5024 46.1207 12.9865 46.206 12.4698 46.1823C11.9532 46.1585 11.4473 46.0262 10.9852 45.7939C10.2399 45.4503 9.61367 44.8929 9.18597 44.1926C8.75567 43.4674 8.53556 42.6367 8.55025 41.7936C8.56988 40.8032 8.80525 39.829 9.23995 38.9388C9.51306 38.3313 9.88607 37.7738 10.3435 37.2896L12.2147 33.2773L14.3977 34.2789L13.684 35.8022C14.2192 35.7746 14.7533 35.8732 15.2433 36.0901C15.7979 36.3317 16.2826 36.7091 16.6527 37.1876C17.0006 37.6491 17.2534 38.175 17.3964 38.7349C17.5583 39.3347 17.7383 40.2403 17.9242 41.3798L18.26 43.287C18.3854 42.894 18.5356 42.5094 18.7098 42.1355C19.1745 40.9931 19.9891 40.0273 21.0368 39.3767C21.4585 39.1233 21.9371 38.98 22.4286 38.9601C22.9202 38.9402 23.4088 39.0443 23.8496 39.2627C24.3887 39.4995 24.8538 39.8774 25.1959 40.3567C25.5379 40.836 25.7441 41.3987 25.7928 41.9855C25.9727 43.269 25.6368 44.8223 24.7852 46.6455C24.2277 48.0141 23.3044 49.203 22.1164 50.082ZM15.5192 39.8445C15.4232 39.5456 15.2675 39.2694 15.0614 39.0327C14.8553 38.7959 14.6033 38.6036 14.3206 38.4672C14.0378 38.3309 13.7304 38.2535 13.4168 38.2397C13.1032 38.226 12.7901 38.2761 12.4965 38.3871C11.8508 38.697 11.3454 39.2387 11.0811 39.9044C10.7321 40.5583 10.6258 41.3147 10.7813 42.0395C10.8559 42.3428 10.9998 42.6246 11.2017 42.8629C11.4036 43.1012 11.6579 43.2894 11.9448 43.4129C12.2378 43.5605 12.5602 43.6404 12.8883 43.6467C13.2163 43.6529 13.5416 43.5853 13.84 43.4489C14.5171 43.122 15.0492 42.5558 15.3333 41.8596C15.6523 41.2376 15.7272 40.5188 15.5432 39.8445H15.5192ZM23.4957 43.0651C23.5127 42.7844 23.4481 42.5049 23.3098 42.2601C23.1714 42.0154 22.9652 41.8159 22.7161 41.6857C21.7145 41.2239 20.7549 41.9735 19.8313 43.9527C19.4293 44.7261 19.2118 45.5821 19.1956 46.4536C19.178 46.7211 19.2397 46.9879 19.373 47.2205C19.5064 47.4531 19.7055 47.6411 19.9453 47.761C20.9948 48.2528 21.9844 47.4911 22.944 45.488C23.3238 44.7369 23.5211 43.9068 23.5197 43.0651H23.4957Z" fill="#5AADF1"/>
<path d="M17.2645 26.1585C17.8259 26.3529 18.3524 26.6364 18.8238 26.9981C18.6446 26.2571 18.6446 25.4841 18.8238 24.7431C19.0138 23.9665 19.3906 23.248 19.9213 22.65C20.3118 22.1331 20.8103 21.7076 21.382 21.4031C21.9538 21.0986 22.5851 20.9224 23.2319 20.8868C24.4613 20.8868 25.7508 21.4146 27.1002 22.572L32.204 26.9381L30.4047 29.0612L25.193 24.6292C24.6439 24.0801 23.9113 23.7533 23.1359 23.7116C22.7957 23.725 22.4627 23.8138 22.161 23.9714C21.8592 24.1291 21.5961 24.3516 21.3907 24.6232C21.0813 24.9535 20.8476 25.3473 20.7057 25.7771C20.5638 26.2069 20.5172 26.6624 20.569 27.1121C20.7621 28.1176 21.3222 29.0154 22.1403 29.631L26.6144 33.4573L24.8152 35.5564L15.8191 27.8557L17.2645 26.1585Z" fill="#5AADF1"/>
<path d="M41.9378 18.5958C40.7863 18.17 39.7967 17.1625 38.9391 15.5971L34.3091 6.78097L36.78 5.48553L38.2973 8.37628L42.6395 6.09727L43.785 8.16037L39.4429 10.4394L41.488 14.3977C41.7983 15.1068 42.3481 15.6843 43.0413 16.0289C43.3474 16.1452 43.676 16.1905 44.0022 16.1614C44.3284 16.1323 44.6437 16.0296 44.9245 15.861C45.27 15.6763 45.5821 15.435 45.8481 15.1473C46.1255 14.8555 46.358 14.524 46.5378 14.1638L48.403 15.1713C48.1812 15.8233 47.8314 16.4244 47.3741 16.9394C46.9169 17.4543 46.3613 17.8727 45.7401 18.17C45.1755 18.5135 44.5427 18.7295 43.886 18.803C43.2292 18.8766 42.5643 18.8059 41.9378 18.5958Z" fill="#5AADF1"/>
<path d="M53.4406 14.1398C52.4396 13.8795 51.538 13.3286 50.8498 12.5565C50.1109 11.709 49.5901 10.6941 49.3324 9.59974C49.0416 8.55063 49.0189 7.4453 49.2664 6.38514C49.5047 5.355 50.0261 4.41193 50.7718 3.66232C51.5708 2.86745 52.5729 2.30731 53.6685 2.04303C54.8689 1.65654 56.1649 1.68825 57.3449 2.13299C57.83 2.33423 58.2596 2.64899 58.5978 3.05078C58.9359 3.45258 59.1726 3.92968 59.2881 4.44198C59.4375 4.9109 59.4653 5.41011 59.3688 5.8927C59.2723 6.37529 59.0546 6.82542 58.7363 7.20079C57.946 8.07517 56.8941 8.67055 55.7376 8.89805L52.1392 9.84563C52.4629 10.6228 53.0515 11.2603 53.8005 11.6449C54.5798 12.015 55.4686 12.0833 56.2954 11.8368C56.9907 11.6719 57.6365 11.3429 58.1786 10.8772C58.6471 10.4599 59.023 9.9492 59.2821 9.37784L61.1773 10.2415C60.5775 12.1846 59.1182 13.4601 56.7992 14.0678C55.7053 14.3856 54.5471 14.4104 53.4406 14.1398ZM56.7692 5.17966C56.719 4.95544 56.6122 4.74783 56.4589 4.57668C56.3056 4.40553 56.1109 4.27655 55.8936 4.20209C55.308 4.01793 54.6799 4.01793 54.0943 4.20209C53.3112 4.3807 52.6264 4.85296 52.1812 5.52152C51.7319 6.23589 51.5394 7.08203 51.6354 7.92047L55.0659 7.02086C56.4333 6.64303 56.9791 6.03729 56.7692 5.17966Z" fill="#5AADF1"/>
<path d="M65.7652 11.3989C65.4049 11.075 65.1196 10.6765 64.929 10.2311C64.7385 9.78578 64.6472 9.30424 64.6616 8.82003C64.6531 8.30757 64.7623 7.79998 64.9806 7.33628C65.1989 6.87258 65.5207 6.46511 65.9211 6.14519C66.9689 5.35679 68.2652 4.9715 69.5735 5.05967C70.7199 5.03526 71.8608 5.22439 72.938 5.61742V5.40152C72.9739 4.97913 72.9232 4.55386 72.7892 4.15171C72.6551 3.74955 72.4405 3.37895 72.1584 3.06254C71.8739 2.80293 71.541 2.60201 71.1787 2.47131C70.8165 2.34061 70.432 2.28268 70.0473 2.30087C69.3911 2.29044 68.7373 2.38354 68.1101 2.57675C67.471 2.79971 66.8746 3.13033 66.3469 3.55432L64.9915 1.91703C65.6982 1.26243 66.5279 0.754814 67.4324 0.423683C68.3786 0.125309 69.3672 -0.0164977 70.3592 0.0038656C71.7431 -0.0489853 73.0928 0.441808 74.1195 1.37127C75.0971 2.27688 75.5709 3.6023 75.5709 5.34754V12.1366H73.4838C73.298 11.5751 73.1812 10.9931 73.136 10.4033C72.7089 11.0267 72.1313 11.5322 71.4567 11.8727C70.6701 12.2508 69.8041 12.4339 68.9318 12.4065C67.786 12.4902 66.6519 12.1294 65.7652 11.3989ZM71.8405 9.50973C72.1408 9.26937 72.3868 8.96827 72.5625 8.62615C72.7382 8.28404 72.8396 7.90865 72.8601 7.52459V7.37466C71.9282 7.10547 70.9633 6.96819 69.9933 6.96684C69.2628 6.90914 68.5314 7.06544 67.8882 7.41664C67.6794 7.56248 67.511 7.75892 67.3987 7.98758C67.2865 8.21625 67.2341 8.46965 67.2465 8.72407C67.228 8.95152 67.2705 9.17979 67.3696 9.38536C67.4687 9.59092 67.6208 9.76635 67.8103 9.89356C68.262 10.1577 68.7809 10.2848 69.3036 10.2594C70.2148 10.3154 71.1156 10.0407 71.8405 9.48574V9.50973Z" fill="#5AADF1"/>
<path d="M85.6648 1.67112C85.6597 2.26549 85.575 2.8565 85.4129 3.42836C86.0327 2.96943 86.7581 2.67394 87.5222 2.56913C88.2863 2.46432 89.0645 2.55356 89.785 2.82862C91.5642 3.46434 92.5478 4.62584 92.7357 6.3131C93.3806 5.78137 94.1581 5.43514 94.9847 5.31154C95.8682 5.1976 96.7662 5.30264 97.5996 5.6174C98.2081 5.79256 98.7692 6.10313 99.2407 6.52584C99.7122 6.94856 100.082 7.47247 100.322 8.05834C100.748 9.18585 100.658 10.6012 100.059 12.2865L97.8155 18.5958L95.2126 17.6662L97.4916 11.2729C98.1453 9.43774 97.7375 8.27425 96.2922 7.73448C95.8871 7.56545 95.4492 7.49006 95.0109 7.51395C94.5727 7.53783 94.1455 7.66037 93.7613 7.87242C92.9156 8.44077 92.2992 9.29093 92.022 10.2714L90.0489 15.819L87.416 14.8774L89.701 8.48416C90.0082 7.77238 90.0653 6.97752 89.8629 6.22914C89.7435 5.92002 89.5541 5.64275 89.3096 5.41905C89.065 5.19534 88.7721 5.03128 88.4536 4.9397C88.0485 4.77216 87.6106 4.69912 87.1731 4.72614C86.7356 4.75316 86.31 4.87952 85.9287 5.09563C85.0744 5.65624 84.4538 6.50919 84.1834 7.49459L82.1683 13.0062L79.5654 12.0766L83.5417 0.921448L85.6648 1.67112Z" fill="#5AADF1"/>
<path d="M37.9253 127.796C37.3941 126.961 37.1112 125.991 37.1097 125.001C37.1057 123.891 37.3538 122.794 37.8354 121.793C38.2811 120.771 38.9612 119.869 39.8205 119.16C40.5947 118.519 41.5386 118.117 42.5373 118.002C43.5655 117.889 44.6049 118.067 45.536 118.518C46.2285 118.823 46.8434 119.28 47.3352 119.856C47.7964 120.406 48.1265 121.054 48.3008 121.751L51.0476 115.753L53.5845 116.917L46.5076 132.306L44.4985 131.383C44.579 130.768 44.73 130.164 44.9483 129.583C44.2241 129.981 43.4162 130.201 42.5906 130.226C41.765 130.251 40.9452 130.08 40.1983 129.727C39.2687 129.319 38.4787 128.648 37.9253 127.796ZM44.3605 127.946C44.8056 127.782 45.2109 127.526 45.55 127.194C45.889 126.862 46.154 126.462 46.3277 126.021L46.5436 125.541C46.7757 125.119 46.9185 124.653 46.9628 124.174C47.0072 123.694 46.9523 123.21 46.8015 122.752C46.6266 122.333 46.37 121.953 46.0467 121.634C45.7234 121.314 45.3398 121.063 44.9183 120.893C44.531 120.697 44.1076 120.583 43.6744 120.557C43.2411 120.531 42.8072 120.595 42.3994 120.743C41.9383 120.954 41.5234 121.254 41.1786 121.625C40.8338 121.997 40.5658 122.433 40.3902 122.908C39.8964 123.815 39.7514 124.871 39.9824 125.877C40.1011 126.294 40.312 126.678 40.5996 127.002C40.8872 127.326 41.2441 127.581 41.6437 127.748C42.4951 128.174 43.4807 128.245 44.3845 127.946H44.3605Z" fill="#5AADF1"/>
<path d="M56.6433 134.441C55.8315 133.801 55.2299 132.932 54.916 131.947C54.583 130.882 54.513 129.752 54.7121 128.654C54.8712 127.576 55.298 126.555 55.9536 125.685C56.5897 124.839 57.4496 124.186 58.4365 123.802C59.4856 123.402 60.6242 123.296 61.7291 123.496C62.9846 123.623 64.159 124.176 65.0576 125.062C65.4194 125.443 65.6848 125.906 65.8319 126.411C65.979 126.915 66.0034 127.448 65.9033 127.964C65.8446 128.443 65.6674 128.899 65.3878 129.292C65.1082 129.685 64.7349 130.001 64.302 130.213C63.2338 130.694 62.0395 130.818 60.8954 130.567L57.219 129.967C57.2092 130.807 57.4935 131.624 58.0227 132.276C58.5799 132.938 59.3656 133.366 60.2237 133.476C60.9179 133.614 61.6349 133.588 62.3168 133.398C62.9121 133.201 63.4611 132.885 63.9301 132.468L65.2855 134.016C63.9541 135.551 62.1029 136.127 59.732 135.743C58.6057 135.589 57.5401 135.14 56.6433 134.441ZM63.3124 127.592C63.3545 127.368 63.3385 127.137 63.2661 126.921C63.1937 126.705 63.0672 126.511 62.8986 126.357C62.436 125.961 61.8618 125.718 61.2553 125.661C60.4806 125.504 59.6752 125.646 59.0003 126.057C58.3105 126.53 57.796 127.217 57.5369 128.012L61.0394 128.576C62.4128 128.798 63.1685 128.474 63.3124 127.592Z" fill="#5AADF1"/>
<path d="M73.43 136.019C72.5459 135.769 71.7271 135.329 71.0311 134.729L72.1646 133.008C72.6747 133.421 73.2745 133.708 73.9158 133.848C74.6222 133.991 75.3462 134.025 76.0629 133.949C76.6165 133.929 77.1572 133.777 77.6402 133.506C77.8115 133.388 77.9455 133.224 78.0263 133.033C78.1071 132.841 78.1313 132.631 78.096 132.426C78.0849 132.219 78.0154 132.018 77.8955 131.849C77.7756 131.679 77.6102 131.546 77.4183 131.467C76.799 131.235 76.1424 131.119 75.4811 131.125C74.3526 131.132 73.2421 130.842 72.2605 130.285C71.8675 130.008 71.5456 129.642 71.3215 129.217C71.0974 128.791 70.9773 128.319 70.9711 127.838C70.9056 127.187 71.0551 126.531 71.3969 125.973C71.7699 125.363 72.3087 124.872 72.9502 124.558C73.6975 124.177 74.5129 123.949 75.3492 123.886C76.2317 123.793 77.1238 123.883 77.9701 124.15C78.7658 124.417 79.5029 124.834 80.1411 125.379L78.9416 127.058C78.4947 126.674 77.9683 126.394 77.4003 126.237C76.8102 126.104 76.202 126.072 75.6011 126.141C74.2157 126.267 73.562 126.741 73.6399 127.628C73.6407 127.817 73.6983 128.001 73.8053 128.156C73.9124 128.311 74.0637 128.43 74.2397 128.498C74.8984 128.695 75.5796 128.808 76.2668 128.834C77.3973 128.878 78.5029 129.18 79.4994 129.715C79.9027 129.985 80.2346 130.349 80.4665 130.775C80.6984 131.201 80.8234 131.677 80.8308 132.162C80.8948 132.827 80.7569 133.496 80.435 134.081C80.0795 134.699 79.5608 135.208 78.9356 135.551C78.1861 135.963 77.3546 136.205 76.5007 136.258C75.4711 136.366 74.4305 136.284 73.43 136.019Z" fill="#5AADF1"/>
<path d="M83.9673 120.246C83.5935 120.023 83.3187 119.667 83.1994 119.249C83.0801 118.83 83.1252 118.382 83.3256 117.997C83.4377 117.803 83.5881 117.634 83.7674 117.5C83.9468 117.366 84.1515 117.269 84.3691 117.217C84.5822 117.146 84.8078 117.119 85.0317 117.138C85.2556 117.158 85.4731 117.224 85.6705 117.331C86.0444 117.553 86.3191 117.91 86.4384 118.328C86.5577 118.746 86.5126 119.194 86.3123 119.58C86.2001 119.774 86.0498 119.943 85.8704 120.077C85.691 120.211 85.4864 120.307 85.2687 120.359C85.0556 120.431 84.8301 120.458 84.6062 120.438C84.3823 120.418 84.1648 120.353 83.9673 120.246ZM84.4651 122.603L87.1279 121.847L90.3665 133.242L87.7037 133.998L84.4651 122.603Z" fill="#5AADF1"/>
<path d="M99.7766 134.399C99.2351 134.379 98.7094 134.212 98.2553 133.916C97.8012 133.62 97.4357 133.207 97.1977 132.72C97.0172 132.349 96.9116 131.947 96.8869 131.535C96.8622 131.123 96.9189 130.711 97.0538 130.321C97.4026 129.208 97.867 128.135 98.4392 127.119L99.0389 126.009C98.0125 126.384 96.8939 126.426 95.8423 126.129C95.349 125.985 94.8913 125.74 94.4988 125.408C94.1062 125.076 93.7875 124.666 93.5633 124.204C93.1658 123.471 93.0025 122.634 93.0955 121.805C93.1942 120.962 93.5289 120.163 94.0611 119.502C94.6808 118.726 95.4628 118.096 96.3521 117.655C96.9397 117.344 97.5735 117.129 98.2293 117.019L102.158 114.98L103.273 117.121L101.78 117.895C102.224 118.204 102.588 118.616 102.841 119.094C103.131 119.616 103.289 120.201 103.303 120.797C103.287 121.384 103.159 121.962 102.925 122.501C102.673 123.1 102.278 123.898 101.726 124.9L100.832 126.615C101.169 126.379 101.521 126.166 101.888 125.979C102.952 125.355 104.186 125.085 105.414 125.205C105.903 125.263 106.37 125.442 106.772 125.726C107.174 126.01 107.499 126.39 107.717 126.831C107.995 127.345 108.131 127.923 108.111 128.508C108.091 129.092 107.916 129.66 107.603 130.153C106.963 131.281 105.75 132.308 103.963 133.236C102.702 134.004 101.253 134.407 99.7766 134.399ZM100.796 122.273C100.903 121.976 100.947 121.66 100.927 121.345C100.907 121.029 100.822 120.722 100.678 120.441C100.534 120.16 100.334 119.911 100.09 119.711C99.8466 119.51 99.5643 119.361 99.2608 119.274C98.5605 119.124 97.8292 119.246 97.2157 119.616C96.5384 119.92 95.9919 120.456 95.6744 121.127C95.5501 121.414 95.4931 121.725 95.5076 122.037C95.5222 122.348 95.608 122.653 95.7584 122.926C95.9007 123.224 96.1074 123.486 96.3637 123.693C96.6199 123.901 96.9192 124.049 97.2397 124.126C97.9783 124.284 98.7493 124.158 99.3988 123.772C100.038 123.468 100.538 122.932 100.796 122.273ZM105.162 129.686C105.347 129.475 105.466 129.216 105.505 128.939C105.545 128.662 105.503 128.38 105.384 128.126C104.872 127.143 103.649 127.155 101.714 128.162C100.917 128.521 100.215 129.062 99.6627 129.74C99.4854 129.941 99.3715 130.19 99.3352 130.455C99.2989 130.721 99.3419 130.992 99.4587 131.233C99.9925 132.258 101.258 132.264 103.207 131.233C103.972 130.879 104.642 130.349 105.162 129.686Z" fill="#5AADF1"/>
<path d="M107.016 111.106C107.551 111.364 108.044 111.702 108.479 112.107C108.368 111.353 108.444 110.582 108.701 109.864C108.973 109.114 109.424 108.441 110.014 107.903C110.459 107.432 111.001 107.064 111.603 106.823C112.205 106.583 112.852 106.477 113.499 106.512C114.722 106.612 115.944 107.311 117.163 108.611L121.763 113.505L119.724 115.412L115.058 110.446C114.568 109.842 113.875 109.438 113.109 109.306C112.77 109.285 112.43 109.338 112.114 109.462C111.798 109.587 111.513 109.779 111.28 110.026C110.934 110.322 110.658 110.691 110.471 111.105C110.283 111.52 110.189 111.97 110.194 112.425C110.274 113.445 110.732 114.399 111.478 115.1L115.508 119.388L113.493 121.283L105.384 112.647L107.016 111.106Z" fill="#5AADF1"/>
<path d="M130.867 97.9413C129.692 98.3011 128.292 98.1012 126.669 97.3415L117.631 93.1433L118.83 90.6124L121.751 92.0038L123.814 87.5538L125.955 88.5493L123.892 92.9994L127.934 94.8706C128.61 95.245 129.396 95.3683 130.153 95.2184C130.468 95.1261 130.758 94.963 131 94.7416C131.242 94.5202 131.431 94.2463 131.551 93.941C131.713 93.5866 131.814 93.2075 131.851 92.8195C131.893 92.4192 131.874 92.0149 131.797 91.62L133.89 91.2902C134.109 91.942 134.196 92.631 134.145 93.3169C134.095 94.0028 133.908 94.6716 133.596 95.2844C133.359 95.8972 132.992 96.4518 132.521 96.9102C132.05 97.3687 131.486 97.7203 130.867 97.9413Z" fill="#5AADF1"/>
<path d="M136.775 83.8535C136.094 84.6298 135.199 85.187 134.202 85.4548C133.122 85.7388 131.99 85.7553 130.903 85.5028C129.833 85.2911 128.833 84.8148 127.994 84.1174C127.179 83.4423 126.569 82.5534 126.231 81.5505C125.882 80.481 125.83 79.3367 126.081 78.2399C126.27 76.9864 126.879 75.834 127.808 74.9714C128.206 74.6273 128.681 74.3835 129.192 74.2604C129.703 74.1372 130.236 74.1384 130.747 74.2637C131.222 74.3467 131.669 74.5464 132.048 74.8447C132.427 75.143 132.726 75.5307 132.918 75.9729C133.346 77.0627 133.413 78.2607 133.11 79.3914L132.342 83.0319C133.18 83.0843 134.009 82.8425 134.687 82.3482C135.369 81.8187 135.827 81.0524 135.971 80.2011C136.139 79.5135 136.139 78.7956 135.971 78.108C135.807 77.5037 135.519 76.9401 135.125 76.4527L136.733 75.1753C138.204 76.5787 138.692 78.4539 138.196 80.8008C137.994 81.9242 137.504 82.976 136.775 83.8535ZM130.255 76.8605C130.034 76.8078 129.802 76.8127 129.583 76.8746C129.363 76.9365 129.163 77.0535 129.002 77.2144C128.581 77.6561 128.309 78.2179 128.222 78.8217C128.03 79.5893 128.135 80.4012 128.516 81.0947C128.952 81.8093 129.615 82.3565 130.399 82.648L131.131 79.1755C131.419 77.8141 131.125 77.0465 130.255 76.8605Z" fill="#5AADF1"/>
<path d="M138.718 67.9003C138.414 68.278 138.032 68.5852 137.599 68.8006C137.165 69.016 136.689 69.1345 136.205 69.1478C135.693 69.1841 135.18 69.1036 134.704 68.9124C134.228 68.7213 133.802 68.4244 133.458 68.0442C132.621 67.0336 132.173 65.7577 132.193 64.4458C132.103 63.3014 132.227 62.1504 132.558 61.0513H132.33C131.907 61.0402 131.485 61.1153 131.091 61.272C130.698 61.4287 130.34 61.6638 130.039 61.9629C129.797 62.261 129.616 62.6043 129.507 62.9728C129.398 63.3413 129.363 63.7278 129.404 64.11C129.429 64.766 129.558 65.4139 129.788 66.0291C130.046 66.6539 130.409 67.23 130.861 67.7324L129.308 69.1837C128.616 68.5191 128.065 67.7215 127.688 66.8388C127.329 65.911 127.127 64.9301 127.089 63.936C126.96 62.5603 127.371 61.1885 128.234 60.1097C129.086 59.0781 130.381 58.5144 132.121 58.4184L138.904 58.0406L139.018 60.1277C138.479 60.3414 137.917 60.4924 137.344 60.5775C137.99 60.9643 138.527 61.5092 138.904 62.1608C139.325 62.9267 139.557 63.782 139.581 64.6557C139.722 65.8081 139.412 66.9702 138.718 67.9003ZM136.487 61.9449C136.229 61.6592 135.915 61.4305 135.563 61.2735C135.212 61.1165 134.832 61.0347 134.448 61.0333H134.292C134.076 61.9787 133.995 62.9499 134.052 63.918C134.033 64.648 134.229 65.3675 134.615 65.9871C134.771 66.1924 134.975 66.3551 135.21 66.4599C135.445 66.5648 135.703 66.6085 135.959 66.5869C136.185 66.5955 136.409 66.5447 136.609 66.4394C136.809 66.3342 136.978 66.1782 137.098 65.9871C137.334 65.5184 137.432 64.9921 137.38 64.4698C137.396 63.5481 137.079 62.6517 136.487 61.9449Z" fill="#5AADF1"/>
<path d="M125.841 51.7673C126.285 51.3726 126.779 51.0379 127.31 50.7718C126.555 50.6185 125.849 50.2779 125.26 49.7812C124.67 49.2845 124.214 48.6476 123.934 47.929C123.202 46.1858 123.402 44.6784 124.534 43.407C123.705 43.282 122.924 42.9383 122.273 42.4114C121.591 41.8384 121.064 41.1045 120.737 40.2763C120.462 39.7068 120.319 39.0826 120.319 38.4501C120.319 37.8177 120.462 37.1934 120.737 36.6239C121.283 35.5444 122.387 34.6628 124.042 33.9671L130.147 31.3882L131.215 33.9431L124.954 36.5879C123.154 37.3376 122.555 38.4351 123.154 39.8685C123.297 40.2858 123.533 40.6649 123.845 40.9767C124.157 41.2886 124.536 41.5249 124.954 41.6677C125.942 41.9084 126.984 41.7893 127.892 41.3319L133.32 39.0588L134.399 41.6317L128.138 44.2586C127.405 44.5075 126.781 45.0009 126.369 45.656C126.219 45.9526 126.141 46.2803 126.141 46.6126C126.141 46.9448 126.219 47.2725 126.369 47.5691C126.516 47.9791 126.755 48.3502 127.066 48.6546C127.378 48.959 127.755 49.1887 128.168 49.3264C129.152 49.5754 130.193 49.4626 131.101 49.0085L136.498 46.7355L137.572 49.2844L126.645 53.8664L125.841 51.7673Z" fill="#5AADF1"/>
<path d="M113.69 21.5525C113.697 22.2584 113.43 22.9394 112.947 23.4537C112.486 23.9755 111.841 24.2997 111.148 24.3593C110.784 24.391 110.418 24.3442 110.075 24.2221C109.731 24.1 109.418 23.9054 109.156 23.6516C108.875 23.4262 108.648 23.1417 108.489 22.8183C108.33 22.4949 108.245 22.1406 108.239 21.7804C108.237 21.075 108.508 20.3962 108.994 19.8853C109.454 19.3608 110.099 19.0342 110.794 18.9737C111.15 18.936 111.511 18.9772 111.85 19.0943C112.189 19.2115 112.498 19.4016 112.755 19.6514C113.039 19.8821 113.269 20.1714 113.431 20.4996C113.592 20.8277 113.681 21.1869 113.69 21.5525Z" fill="#5AADF1"/>
<path fill-rule="evenodd" clip-rule="evenodd" d="M79.6314 69.4236L84.1475 57.2429L88.6695 69.4236H79.6314ZM88.9394 52.7209C88.7985 52.2632 88.5049 51.8676 88.1076 51.6002C87.7104 51.3328 87.2334 51.2098 86.7563 51.2515H80.2372L67.8945 82.9238H75.0074L77.7003 75.3611H90.6006L93.3475 82.9238H100.664L88.9394 52.7209ZM66.701 75.457L63.2585 72.8242C62.4319 74.1345 61.2782 75.2068 59.9111 75.9356C58.544 76.6644 57.0106 77.0245 55.4619 76.9804C49.9743 76.9804 46.8257 72.6682 46.8257 67.0847C46.8257 61.687 49.6744 57.2429 55.6179 57.2429C57.0929 57.1829 58.5566 57.5237 59.8535 58.2291C61.1503 58.9345 62.2317 59.9782 62.9827 61.2492L66.4611 58.5804C66.8477 58.2848 67.1044 57.8508 67.1771 57.3697C67.2498 56.8886 67.1329 56.398 66.851 56.0015C64.1941 52.3311 60.0619 50.7418 55.5639 50.7418C44.6966 50.7418 39.6648 58.8622 39.6648 67.0847C39.6648 76.8304 45.4583 83.4815 55.4619 83.4815C60.2598 83.4815 64.458 81.7663 67.0789 78.0179C67.3581 77.6246 67.4746 77.1387 67.4042 76.6616C67.3338 76.1844 67.0819 75.7529 66.701 75.457Z" fill="#2687E9"/>
</svg>
